<svg width="166" height="166" viewBox="0 0 166 166" fill="none" xmlns="http://www.w3.org/2000/svg">
<rect width="166" height="166" rx="83" fill="url(#paint0_linear)"/>
<g filter="url(#filter0_d)">
<rect x="47" y="48" width="72" height="66" rx="7" fill="white"/>
</g>
<path d="M47 55C47 51.134 50.134 48 54 48H112C115.866 48 119 51.134 119 55V63H47V55Z" fill="#FF9995" fill-opacity="0.4"/>
<path d="M98.875 55C98.4289 55.8016 98.0314 56.6295 97.6846 57.4791C94.2767 56.9383 90.8053 56.9383 87.3974 57.4791C87.0506 56.6295 86.653 55.8016 86.2069 55C82.9968 55.5504 79.8761 56.536 76.9305 57.9298C71.6632 65.557 69.2745 74.8167 70.1922 84.0502C73.6248 86.6394 77.4773 88.6141 81.58 89.8873C82.5141 88.6491 83.3479 87.3378 84.0731 85.9659C82.7346 85.4707 81.4481 84.8441 80.2323 84.0953C80.5657 83.8727 80.8812 83.624 81.1757 83.3516C84.721 85.0651 88.6057 85.9549 92.541 85.9549C96.4762 85.9549 100.361 85.0651 103.906 83.3516C104.221 83.622 104.535 83.8699 104.85 84.0953C103.627 84.8382 102.342 85.4717 101.009 85.9884C101.704 87.3914 102.515 88.7333 103.435 90C107.532 88.7312 111.378 86.756 114.8 84.1629C115.74 74.9277 113.349 65.6604 108.062 58.0425C105.149 56.6198 102.059 55.5965 98.875 55V55ZM85.0839 78.7766C83.9599 78.6956 82.9109 78.1809 82.157 77.3404C81.4032 76.5 81.0031 75.3992 81.0409 74.2692C80.9974 73.1376 81.3955 72.0337 82.1505 71.192C82.9055 70.3503 83.9578 69.8372 85.0839 69.7618C86.2099 69.8372 87.2623 70.3503 88.0173 71.192C88.7722 72.0337 89.1703 73.1376 89.1269 74.2692C89.1703 75.4007 88.7722 76.5046 88.0173 77.3463C87.2623 78.188 86.2099 78.7011 85.0839 78.7766V78.7766ZM99.998 78.7766C98.8741 78.6956 97.825 78.1809 97.0712 77.3404C96.3173 76.5 95.9173 75.3992 95.955 74.2692C95.9116 73.1376 96.3097 72.0337 97.0647 71.192C97.8196 70.3503 98.872 69.8372 99.998 69.7618C101.126 69.8316 102.182 70.343 102.938 71.186C103.694 72.029 104.09 73.1361 104.041 74.2692C104.09 75.4022 103.694 76.5094 102.938 77.3523C102.182 78.1953 101.126 78.7068 99.998 78.7766V78.7766Z" fill="#FF9F99"/>
<defs>
<filter id="filter0_d" x="44" y="48" width="75" height="72" filterUnits="userSpaceOnUse" color-interpolation-filters="sRGB">
<feFlood flood-opacity="0" result="BackgroundImageFix"/>
<feColorMatrix in="SourceAlpha" type="matrix" values="0 0 0 0 0 0 0 0 0 0 0 0 0 0 0 0 0 0 127 0" result="hardAlpha"/>
<feOffset dx="-3" dy="6"/>
<feComposite in2="hardAlpha" operator="out"/>
<feColorMatrix type="matrix" values="0 0 0 0 0 0 0 0 0 0 0 0 0 0 0 0 0 0 0.22 0"/>
<feBlend mode="normal" in2="BackgroundImageFix" result="effect1_dropShadow"/>
<feBlend mode="normal" in="SourceGraphic" in2="effect1_dropShadow" result="shape"/>
</filter>
<linearGradient id="paint0_linear" x1="9.32584" y1="7.46067" x2="152.011" y2="166" gradientUnits="userSpaceOnUse">
<stop stop-color="#A59EF5"/>
<stop offset="0.0001" stop-color="#FF9894"/>
<stop offset="1" stop-color="#FFD5C0"/>
</linearGradient>
</defs>
</svg>
